<?xml version="1.0" encoding="UTF-8" standalone="no"?><!-- Generator: Gravit.io --><svg xmlns="http://www.w3.org/2000/svg" xmlns:xlink="http://www.w3.org/1999/xlink" style="isolation:isolate" viewBox="0 0 1000 1000" width="1000pt" height="1000pt"><defs><clipPath id="_clipPath_cNPt9BtLmE9KvVx6dRhYz79m40cUMt0Z"><rect width="1000" height="1000"/></clipPath></defs><g clip-path="url(#_clipPath_cNPt9BtLmE9KvVx6dRhYz79m40cUMt0Z)"><path d=" M 563.618 900 L 250 900 C 167.213 900 100 832.787 100 750 L 100 250 C 100 167.213 167.213 100 250 100 L 750 100 C 832.787 100 900 167.213 900 250 L 900 563.618 L 563.618 900 Z " fill-rule="evenodd" fill="rgb(23,162,184)"/><path d=" M 900 563.618 L 713.618 563.618 C 630.83 563.618 563.618 630.83 563.618 713.618 L 563.618 900 L 900 563.618 Z " fill-rule="evenodd" fill="rgb(255,193,7)"/><path d="M 294.5 200 L 705.5 200 C 716.262 200 725 208.738 725 219.5 L 725 255.5 C 725 266.262 716.262 275 705.5 275 L 294.5 275 C 283.738 275 275 266.262 275 255.5 L 275 219.5 C 275 208.738 283.738 200 294.5 200 Z" style="stroke:none;fill:#FFC107;stroke-miterlimit:10;"/><path d="M 355 336.46 L 770 336.46 C 781.038 336.46 790 345.422 790 356.46 L 790 391.46 C 790 402.498 781.038 411.46 770 411.46 L 355 411.46 C 343.962 411.46 335 402.498 335 391.46 L 335 356.46 C 335 345.422 343.962 336.46 355 336.46 Z" style="stroke:none;fill:#FFFFFF;stroke-miterlimit:10;"/><path d="M 232 336.46 L 267 336.46 C 278.038 336.46 287 345.422 287 356.46 L 287 391.46 C 287 402.498 278.038 411.46 267 411.46 L 232 411.46 C 220.962 411.46 212 402.498 212 391.46 L 212 356.46 C 212 345.422 220.962 336.46 232 336.46 Z" style="stroke:none;fill:#FFC107;stroke-miterlimit:10;"/><path d="M 232 462.5 L 480 462.5 C 491.038 462.5 500 471.462 500 482.5 L 500 517.5 C 500 528.538 491.038 537.5 480 537.5 L 232 537.5 C 220.962 537.5 212 528.538 212 517.5 L 212 482.5 C 212 471.462 220.962 462.5 232 462.5 Z" style="stroke:none;fill:#FFFFFF;stroke-miterlimit:10;"/></g></svg>