<?xml version="1.0" encoding="UTF-8" standalone="no"?><!-- Generator: Gravit.io --><svg xmlns="http://www.w3.org/2000/svg" xmlns:xlink="http://www.w3.org/1999/xlink" style="isolation:isolate" viewBox="0 0 1000 1000" width="1000pt" height="1000pt"><defs><clipPath id="_clipPath_eSDL8Q10pfVtXDKhi2zACqWVexpeManN"><rect width="1000" height="1000"/></clipPath></defs><g clip-path="url(#_clipPath_eSDL8Q10pfVtXDKhi2zACqWVexpeManN)"><path d=" M 579.522 1000 L 187.5 1000 C 84.016 1000 0 915.984 0 812.5 L 0 187.5 C 0 84.016 84.016 0 187.5 0 L 812.5 0 C 915.984 0 1000 84.016 1000 187.5 L 1000 579.522 L 579.522 1000 Z " fill-rule="evenodd" fill="rgb(23,162,184)"/><path d=" M 1000 579.522 L 767.022 579.522 C 663.538 579.522 579.522 663.538 579.522 767.022 L 579.522 1000 L 1000 579.522 Z " fill-rule="evenodd" fill="rgb(255,193,7)"/><path d="M 243.125 125 L 756.875 125 C 770.328 125 781.25 135.922 781.25 149.375 L 781.25 194.375 C 781.25 207.828 770.328 218.75 756.875 218.75 L 243.125 218.75 C 229.672 218.75 218.75 207.828 218.75 194.375 L 218.75 149.375 C 218.75 135.922 229.672 125 243.125 125 Z" style="stroke:none;fill:#FFC107;stroke-miterlimit:10;"/><path d="M 318.75 295.57 L 837.5 295.57 C 851.298 295.57 862.5 306.772 862.5 320.57 L 862.5 364.32 C 862.5 378.118 851.298 389.32 837.5 389.32 L 318.75 389.32 C 304.952 389.32 293.75 378.118 293.75 364.32 L 293.75 320.57 C 293.75 306.772 304.952 295.57 318.75 295.57 Z" style="stroke:none;fill:#FFFFFF;stroke-miterlimit:10;"/><path d="M 165 295.57 L 208.75 295.57 C 222.548 295.57 233.75 306.772 233.75 320.57 L 233.75 364.32 C 233.75 378.118 222.548 389.32 208.75 389.32 L 165 389.32 C 151.202 389.32 140 378.118 140 364.32 L 140 320.57 C 140 306.772 151.202 295.57 165 295.57 Z" style="stroke:none;fill:#FFC107;stroke-miterlimit:10;"/><path d="M 165 453.13 L 475 453.13 C 488.798 453.13 500 464.332 500 478.13 L 500 521.88 C 500 535.678 488.798 546.88 475 546.88 L 165 546.88 C 151.202 546.88 140 535.678 140 521.88 L 140 478.13 C 140 464.332 151.202 453.13 165 453.13 Z" style="stroke:none;fill:#FFFFFF;stroke-miterlimit:10;"/></g></svg>